<?xml version="1.0" encoding="UTF-8"?>
<level>
  <owner>Fistachka</owner>
  <repo>krasnyjtraktor</repo>
  <version>v1.0.5</version>
  <next number="1" owner="stolbitsa" repo="v-lesu-rodilas-elochka"/>
  <readme>
    <ru>1be9e5a94ef61f555537b1cb231aa276c99338c3b92ddd43fe1a740cafbd525c</ru>
    <en>7552b552f8d14b726743522bdf21a8d34775464af17845c81981fbc19084b020</en>
  </readme>
  <license>b1b99f5538d1fd3702219bff50c665196dfa42f6ee755c37fe41a6178d6bc6e5</license>
  <exercise number="1">
    <scale>major</scale>
    <bpm>120</bpm>
    <lowestNote>5</lowestNote>
    <tonalities>10</tonalities>
    <video name="1.mp4" size="1345944" type="video/mp4">4d4be44307bf8a1ad0e98b240c06a95e637bcb67b04ce63e839029750cbd03d5</video>
    <notes>
      <note number="1" values="18" ticks="0" durationTicks="34" ppq="96" velocity="0.982"/>
      <note number="2" values="38" ticks="34" durationTicks="13" ppq="96" velocity="0.974"/>
      <note number="3" values="38" ticks="51" durationTicks="140" ppq="96" velocity="0.972"/>
      <note number="4" values="48" ticks="193" durationTicks="46" ppq="96" velocity="0.913"/>
      <note number="5" values="28" ticks="244" durationTicks="43" ppq="96" velocity="0.913"/>
      <note number="6" values="18" ticks="292" durationTicks="95" ppq="96" velocity="0.913"/>
    </notes>
  </exercise>
  <exercise number="2">
    <scale>major</scale>
    <bpm>120</bpm>
    <lowestNote>5</lowestNote>
    <tonalities>10</tonalities>
    <video name="2.mp4" size="1605240" type="video/mp4">7e139a416749add2772828e9cc81a2a584d212d3abad796ff3184c6982acf343</video>
    <notes>
      <note number="1" values="5" ticks="0" durationTicks="97" ppq="192" velocity="0.902"/>
      <note number="2" values="38" ticks="95" durationTicks="97" ppq="192" velocity="0.919"/>
      <note number="3" values="38" ticks="192" durationTicks="92" ppq="192" velocity="0.922"/>
      <note number="4" values="38" ticks="289" durationTicks="95" ppq="192" velocity="0.949"/>
      <note number="5" values="48" ticks="386" durationTicks="96" ppq="192" velocity="1"/>
      <note number="6" values="28" ticks="481" durationTicks="94" ppq="192" velocity="1"/>
      <note number="7" values="18" ticks="579" durationTicks="100" ppq="192" velocity="1"/>
    </notes>
  </exercise>
  <exercise number="3">
    <scale>major</scale>
    <bpm>120</bpm>
    <lowestNote>5</lowestNote>
    <tonalities>10</tonalities>
    <video name="3.mp4" size="1426982" type="video/mp4">083d2ec18e29ff9ff7a380088f422494efc016333ed937d46cf2f2ff59101741</video>
    <notes>
      <note number="1" values="5" ticks="23" durationTicks="34" ppq="96" velocity="0.843"/>
      <note number="2" values="38" ticks="58" durationTicks="13" ppq="96" velocity="0.913"/>
      <note number="3" values="38" ticks="73" durationTicks="48" ppq="96" velocity="0.874"/>
      <note number="4" values="38" ticks="119" durationTicks="49" ppq="96" velocity="0.921"/>
      <note number="5" values="48" ticks="167" durationTicks="42" ppq="96" velocity="0.921"/>
      <note number="6" values="28" ticks="216" durationTicks="48" ppq="96" velocity="0.921"/>
      <note number="7" values="18" ticks="262" durationTicks="46" ppq="96" velocity="0.921"/>
      <note number="8" values="18" ticks="312" durationTicks="46" ppq="96" velocity="0.921"/>
    </notes>
  </exercise>
  <exercise number="4">
    <scale>major</scale>
    <bpm>120</bpm>
    <lowestNote>5</lowestNote>
    <tonalities>10</tonalities>
    <video name="4.mp4" size="1018021" type="video/mp4">60f422e2acbb7b7a11a247830b7a23e6b1fc7f59fadd14de0f17b043edbf8fea</video>
    <notes>
      <note number="1" values="18" ticks="0" durationTicks="49" ppq="96" velocity="0.843"/>
      <note number="2" values="18" ticks="47" durationTicks="48" ppq="96" velocity="0.913"/>
      <note number="3" values="7" ticks="96" durationTicks="48" ppq="96" velocity="0.874"/>
      <note number="4" values="7" ticks="144" durationTicks="50" ppq="96" velocity="0.921"/>
      <note number="5" values="18" ticks="193" durationTicks="95" ppq="96" velocity="0.921"/>
    </notes>
  </exercise>
  <exercise number="5">
    <scale>major</scale>
    <bpm>120</bpm>
    <lowestNote>5</lowestNote>
    <tonalities>10</tonalities>
    <video name="5.mp4" size="1793087" type="video/mp4">e5f03c6b458ab44144f7972d6e8d39af6a0614107973890a855d8c786127d80e</video>
    <notes>
      <note number="1" values="18" ticks="0" durationTicks="49" ppq="96" velocity="0.843"/>
      <note number="2" values="48" ticks="48" durationTicks="23" ppq="96" velocity="0.913"/>
      <note number="3" values="48" ticks="95" durationTicks="24" ppq="96" velocity="0.874"/>
      <note number="4" values="48" ticks="144" durationTicks="23" ppq="96" velocity="0.921"/>
      <note number="5" values="48" ticks="191" durationTicks="41" ppq="96" velocity="0.921"/>
      <note number="6" values="18" ticks="240" durationTicks="95" ppq="96" velocity="0.921"/>
    </notes>
  </exercise>
  <exercise number="6">
    <scale>major</scale>
    <bpm>120</bpm>
    <lowestNote>5</lowestNote>
    <tonalities>10</tonalities>
    <video name="6.mp4" size="1746773" type="video/mp4">c5f5a09b0d85c8fb70915d1aa65a61edcce7233352186142e9ab5ceb7195b503</video>
    <notes>
      <note number="1" values="18" ticks="49" durationTicks="96" ppq="192" velocity="0.945"/>
      <note number="2" values="48" ticks="143" durationTicks="54" ppq="192" velocity="0.953"/>
      <note number="3" values="48" ticks="241" durationTicks="48" ppq="192" velocity="0.945"/>
      <note number="4" values="48" ticks="335" durationTicks="46" ppq="192" velocity="0.953"/>
      <note number="5" values="48" ticks="432" durationTicks="45" ppq="192" velocity="0.937"/>
      <note number="6" values="18" ticks="527" durationTicks="190" ppq="192" velocity="0.945"/>
    </notes>
  </exercise>
  <exercise number="7">
    <scale>major</scale>
    <bpm>120</bpm>
    <lowestNote>5</lowestNote>
    <tonalities>10</tonalities>
    <video name="7.mp4" size="2052073" type="video/mp4">327f20976669361b6ed739db9b50f59c62c43902248ecd27c9b575ea8e28664d</video>
    <notes>
      <note number="1" values="18" ticks="23" durationTicks="26" ppq="96" velocity="0.843"/>
      <note number="2" values="18" ticks="73" durationTicks="41" ppq="96" velocity="0.913"/>
      <note number="3" values="7" ticks="119" durationTicks="26" ppq="96" velocity="0.874"/>
      <note number="4" values="7" ticks="167" durationTicks="36" ppq="96" velocity="0.921"/>
      <note number="5" values="28" ticks="214" durationTicks="28" ppq="96" velocity="0.921"/>
      <note number="6" values="28" ticks="265" durationTicks="46" ppq="96" velocity="0.921"/>
      <note number="7" values="18" ticks="311" durationTicks="25" ppq="96" velocity="0.921"/>
      <note number="8" values="18" ticks="360" durationTicks="50" ppq="96" velocity="0.921"/>
    </notes>
  </exercise>
  <exercise number="8">
    <scale>major</scale>
    <bpm>120</bpm>
    <lowestNote>5</lowestNote>
    <tonalities>10</tonalities>
    <video name="8.mp4" size="1486816" type="video/mp4">a1e270acd5c7ba50ddb323dce7d589426d471711ece34f7be98bd24d213cc19c</video>
    <notes>
      <note number="1" values="18" ticks="4" durationTicks="24" ppq="96" velocity="0.843"/>
      <note number="2" values="18" ticks="51" durationTicks="46" ppq="96" velocity="0.913"/>
      <note number="3" values="7" ticks="100" durationTicks="23" ppq="96" velocity="0.874"/>
      <note number="4" values="7" ticks="144" durationTicks="43" ppq="96" velocity="0.921"/>
      <note number="5" values="18" ticks="192" durationTicks="95" ppq="96" velocity="0.921"/>
    </notes>
  </exercise>
  <exercise number="9">
    <scale>major</scale>
    <bpm>120</bpm>
    <lowestNote>1</lowestNote>
    <tonalities>10</tonalities>
    <video name="9.mp4" size="1410518" type="video/mp4">bfd60db06ef2372daf17e6ad69813fc3bcd87707bca80949a09d0cc52fda31e2</video>
    <notes>
      <note number="1" values="1" ticks="113" durationTicks="73" ppq="192" velocity="0.945"/>
      <note number="2" values="1" ticks="209" durationTicks="64" ppq="192" velocity="0.953"/>
      <note number="3" values="1" ticks="303" durationTicks="65" ppq="192" velocity="0.945"/>
      <note number="4" values="1" ticks="402" durationTicks="78" ppq="192" velocity="0.953"/>
      <note number="5" values="5" ticks="494" durationTicks="50" ppq="192" velocity="0.937"/>
      <note number="6" values="5" ticks="587" durationTicks="55" ppq="192" velocity="0.945"/>
      <note number="7" values="5" ticks="685" durationTicks="138" ppq="192" velocity="0.906"/>
    </notes>
  </exercise>
  <exercise number="10">
    <scale>major</scale>
    <bpm>120</bpm>
    <lowestNote>1</lowestNote>
    <tonalities>10</tonalities>
    <video name="10.1.1.mp4" size="1464837" type="video/mp4">415dd2451ef413a378c714f4b7bbb71d266a43c0976a6f3464cacff4f0c4ee4f</video>
    <notes>
      <note number="1" values="1" ticks="25" durationTicks="33" ppq="96" velocity="0.843"/>
      <note number="2" values="1" ticks="72" durationTicks="32" ppq="96" velocity="0.913"/>
      <note number="3" values="1" ticks="121" durationTicks="33" ppq="96" velocity="0.874"/>
      <note number="4" values="1" ticks="168" durationTicks="38" ppq="96" velocity="0.921"/>
      <note number="5" values="5" ticks="217" durationTicks="74" ppq="96" velocity="0.921"/>
      <note number="6" values="5" ticks="312" durationTicks="95" ppq="96" velocity="0.921"/>
    </notes>
  </exercise>
  <exercise number="11">
    <scale>major</scale>
    <bpm>120</bpm>
    <lowestNote>1</lowestNote>
    <tonalities>10</tonalities>
    <video name="11.1.2.mp4" size="828056" type="video/mp4">94392e010a2713c582f5cec8b49407fe4bf65c4e4aefdee7e6acb4e8696923c5</video>
    <notes>
      <note number="1" values="1" ticks="0" durationTicks="33" ppq="96" velocity="0.843"/>
      <note number="2" values="1" ticks="42" durationTicks="32" ppq="96" velocity="0.913"/>
      <note number="3" values="1" ticks="88" durationTicks="32" ppq="96" velocity="0.874"/>
      <note number="4" values="1" ticks="139" durationTicks="33" ppq="96" velocity="0.921"/>
      <note number="5" values="5" ticks="189" durationTicks="33" ppq="96" velocity="0.921"/>
      <note number="6" values="5" ticks="236" durationTicks="34" ppq="96" velocity="0.921"/>
      <note number="7" values="5" ticks="284" durationTicks="128" ppq="96" velocity="0.921"/>
    </notes>
  </exercise>
  <exercise number="12">
    <scale>major</scale>
    <bpm>120</bpm>
    <lowestNote>1</lowestNote>
    <tonalities>10</tonalities>
    <video name="12.2.1.mp4" size="1529677" type="video/mp4">b88962c6e8a9055d4ebb0120f15e1c5e97ec5c05b44871905988875c2e873bfc</video>
    <notes>
      <note number="1" values="7" ticks="23" durationTicks="42" ppq="96" velocity="0.843"/>
      <note number="2" values="6" ticks="72" durationTicks="41" ppq="96" velocity="0.913"/>
      <note number="3" values="5" ticks="120" durationTicks="45" ppq="96" velocity="0.874"/>
      <note number="4" values="6" ticks="167" durationTicks="46" ppq="96" velocity="0.921"/>
      <note number="5" values="5" ticks="217" durationTicks="337" ppq="96" velocity="0.921"/>
    </notes>
  </exercise>
  <exercise number="13">
    <scale>major</scale>
    <bpm>120</bpm>
    <lowestNote>1</lowestNote>
    <tonalities>10</tonalities>
    <video name="13.2.mp4" size="1400354" type="video/mp4">99d9a67ddfc40648be9674d7445b16ecf80211c858e476ddfd3a92f0dbae9d28</video>
    <notes>
      <note number="1" values="18" ticks="434" durationTicks="17" ppq="96" velocity="0.843"/>
      <note number="2" values="18" ticks="458" durationTicks="17" ppq="96" velocity="0.913"/>
      <note number="3" values="18" ticks="481" durationTicks="22" ppq="96" velocity="0.874"/>
      <note number="4" values="18" ticks="505" durationTicks="22" ppq="96" velocity="0.921"/>
      <note number="5" values="7" ticks="527" durationTicks="25" ppq="96" velocity="0.921"/>
      <note number="6" values="7" ticks="553" durationTicks="22" ppq="96" velocity="0.921"/>
      <note number="7" values="7" ticks="577" durationTicks="22" ppq="96" velocity="0.921"/>
      <note number="8" values="7" ticks="601" durationTicks="21" ppq="96" velocity="0.921"/>
      <note number="9" values="18" ticks="624" durationTicks="95" ppq="96" velocity="0.921"/>
    </notes>
  </exercise>
</level>
